<svg xmlns="http://www.w3.org/2000/svg" xmlns:xlink="http://www.w3.org/1999/xlink" version="1.1" id="layer" x="0px" y="0px" viewBox="0 0 652 652" style="enable-background:new 0 0 652 652;" xml:space="preserve">
<style type="text/css">
	.st0{fill:#404040;}
	.st1{fill:#FFFFFF;}
	.st2{fill:#ffffff;}
	.st3{fill:#ffffff;}
</style>
<g>
	<path class="st0" d="M313.2,134.2c5.8,0,11.4,0.5,16.8,1.5l12.8-13.3c-8.9-3.1-19-4.8-29.6-4.8c-18,0-34.4,5-46.6,13.2l11.1,10.6   C288.1,136.8,300.2,134.2,313.2,134.2" fill="#ffffff"/>
	<path class="st1" d="M313.2,117.6c10.6,0,20.7,1.7,29.6,4.8l13.9-14.5c-13-5.1-27.8-8-43.5-8c-23.4,0-44.8,6.5-61.2,17.1l14.6,13.8   C278.8,122.6,295.1,117.6,313.2,117.6" fill="#ffffff"/>
	<path class="st0" d="M246.4,174.2c1.2-4.8,3.3-9.3,6.3-13.5l-5.6-5.7c-1.1,3.5-1.7,7.1-1.7,10.8   C245.4,168.7,245.7,171.5,246.4,174.2" fill="#ffffff"/>
	<path class="st0" d="M205,205.6l-2.4,12.2l23.4-10.1c-1.5-3.1-1.8-7.2-2.6-10.5L205,205.6z" fill="#ffffff"/>
	<polygon class="st0" points="188.5,72.9 154.7,258.4 170.7,259.8 204.2,71.5  " fill="#ffffff"/>
	<path class="st2" d="M302.5,179.7v-15l-24.6-23.3l-11.1-10.6L252.1,117l-47.9-45.4l-33.6,188.2l71-31.2   c-7.1-6.2-12.1-12.9-15.8-20.7l-23.1,9.9l2.3-12.1l15-78.1l1.3-6.5l12.4,12.4l15.9,16l6.8,6.9l28.1,24.2L257.2,193   c7.1,7.1,15.5,13.3,26.8,16.8l34-15.3L302.5,179.7z" fill="#ffffff"/>
	<path class="st0" d="M380,174.2c0.7-2.7,1-5.5,1-8.3c0-8.4-3.1-16.3-8.3-23.2l-8.1,8.4C372.4,157.6,377.9,165.5,380,174.2" fill="#ffffff"/>
	<path class="st0" d="M395.2,253.6L376,235.2c-3.1,2.1-6.3,4-9.8,5.8l28.9,27.7l89.1-92.8l-0.1-15L395.2,253.6z" fill="#ffffff"/>
	<path class="st0" d="M330.2,191.3l-15.8-15.1l-12.1-11.5l0,15l17,16.3l16.2,15.6c4.1-1,8.1-2.3,11.8-3.9L330.2,191.3z" fill="#ffffff"/>
	<polygon class="st0" points="392.2,107.4 379.5,120.6 365.5,135.2 356,145.1 337.9,163.9 345.5,171.2 364.7,151.2 372.7,142.8    387.5,127.4 392.2,122.5 441.2,169.5 448.8,161.6  " fill="#ffffff"/>
	<path class="st1" d="M387.5,127.4l-14.7,15.3c5.3,6.9,8.3,14.8,8.3,23.1c0,2.8-0.4,5.6-1,8.3c-1.7,7.1-5.6,13.6-11.1,19.2   c-5.6,5.8-13,10.7-21.6,14.2c-3.7,1.5-7.6,2.8-11.8,3.9c-7,1.7-14.5,2.7-22.3,2.7c-9.6,0-18.8-1.4-27.1-4   c-11.3-3.5-21-9.2-28.1-16.3c-2.6-2.6-4.8-5.4-6.7-8.3c-2.3-3.6-3.9-7.4-4.9-11.4c-0.7-2.7-1-5.5-1-8.3c0-3.7,0.6-7.4,1.7-10.8   l-16.9-17.1c-6.2,9.2-9.7,19.5-9.7,30.5c0,2.8,0.3,5.6,0.7,8.3c1.1,6.6,3.5,13,6.9,18.9c1.7,3,3.7,5.8,6,8.6   c5.9,7.2,13.6,13.5,22.6,18.6c15.6,8.9,35.2,14.2,56.4,14.2c14.9,0,28.9-2.6,41.3-7.2c3.8-1.4,7.4-3,10.9-4.7   c8-4.1,15.1-9,21.1-14.7c10-9.5,16.6-21,18.7-33.6c0.4-2.7,0.7-5.5,0.7-8.3C405.9,153.1,399,138.9,387.5,127.4" fill="#ffffff"/>
	<path class="st3" d="M330.2,191.4l17,16.3c8.6-3.6,16-8.4,21.7-14.2l-23.3-22.4l-7.6-7.3l18-18.7l9.5-9.9l14-14.6l12.7-13.2   l56.4,54.2l-7.6,7.9l-46.2,48.1c-4.9,6.7-11.2,12.6-18.7,17.7l19,18.3l89.1-92.8l-92.8-89.1L356.6,108l-13.9,14.5l-12.8,13.3   l-27.5,28.8L330.2,191.4z" fill="#ffffff"/>
	<path class="st0" d="M251.7,186.1l0.5,0.8c1.4,2.2,3.2,4.1,5,6.1l27.7-12.8l-63.7-59.3l-1.7,9.2l50,49.5L251.7,186.1z" fill="#ffffff"/>
	<path class="st0" d="M405.9,168.4c0,2.8-0.3,5.6-0.7,8.3c-2.1,12.6-8.7,24.1-18.7,33.6c-5.9,5.7-13.1,10.6-21.1,14.7   c-3.5,1.8-7.1,3.3-10.9,4.7c-12.4,4.6-26.5,7.2-41.3,7.2c-21.2,0-40.8-5.3-56.4-14.2c-9-5.1-16.7-11.4-22.6-18.6   c-2.3-2.7-4.3-5.6-6-8.6c-3.5-5.9-5.8-12.2-6.9-18.9c-0.5-2.7-0.7-5.5-0.7-8.3c0-0.9,0.1-1.8,0.1-2.6l0-0.2   c-0.5,2.7-0.1,16.6-0.1,19.5c0,4.5,0.6,8.8,1.7,13.1c0.9,3.3,2,6.5,3.5,9.6c3.7,7.8,9.3,15,16.4,21.3c17,15,42.5,24.6,71.1,24.6   c19.8,0,38.2-4.6,53.2-12.4c3.4-1.8,6.7-3.7,9.7-5.8c7.5-5.1,13.8-11.1,18.7-17.8c7.1-9.7,11.1-20.7,11.1-32.5   c0-2.5,0.2-14.2,0-18.9C405.8,165.6,405.9,167.6,405.9,168.4" fill="#ffffff"/>
</g>
<g>
	<path class="st0" d="M313.3,133.5c5.8,0,11.5,0.5,16.9,1.5l12.8-13.2c-9-3.1-19-4.8-29.7-4.8c-18.1,0-34.6,5-46.7,13.1l11.2,10.4   C288.1,136.1,300.3,133.5,313.3,133.5" fill="#ffffff"/>
	<path class="st1" d="M313.3,117c10.7,0,20.7,1.7,29.7,4.8l14-14.3c-13-5.1-27.9-7.9-43.7-7.9c-23.5,0-45,6.4-61.4,16.9l14.6,13.7   C278.7,122,295.2,117,313.3,117" fill="#ffffff"/>
	<path class="st0" d="M246.3,173c1.2-4.7,3.3-9.2,6.3-13.3l-5.6-5.6c-1.1,3.4-1.7,7-1.7,10.7C245.3,167.6,245.6,170.3,246.3,173" fill="#ffffff"/>
	<path class="st0" d="M204.7,204l-2.4,12l23.5-10c-1.5-3.1-1.8-7.1-2.6-10.3L204.7,204z" fill="#ffffff"/>
	<polygon class="st0" points="188.2,72.9 154.2,256.2 170.3,257.5 203.9,71.5  " fill="#ffffff"/>
	<path class="st2" d="M302.5,178.4v-14.8l-24.7-23l-11.2-10.4L252,116.4l-48.1-44.9l-33.7,186l71.2-30.8   c-7.1-6.2-12.1-12.8-15.9-20.5l-23.2,9.8l2.3-12l15-77.1l1.3-6.5l12.4,12.3l16,15.8l6.9,6.8l28.2,23.9l-27.4,12.3   c7.1,7,15.5,13.1,26.9,16.6l34.1-15.1L302.5,178.4z" fill="#ffffff"/>
	<path class="st0" d="M380.3,173c0.7-2.7,1-5.4,1-8.2c0-8.3-3.1-16.1-8.4-22.9l-8.1,8.3C372.7,156.6,378.2,164.4,380.3,173" fill="#ffffff"/>
	<path class="st0" d="M395.5,251.5l-19.2-18.2c-3.1,2.1-6.4,4-9.8,5.7l29,27.4l89.4-91.7l-0.1-14.9L395.5,251.5z" fill="#ffffff"/>
	<path class="st0" d="M330.4,189.9l-15.8-15l-12.1-11.4l0,14.9l17,16.1l16.3,15.4c4.1-1,8.1-2.3,11.8-3.8L330.4,189.9z" fill="#ffffff"/>
	<polygon class="st0" points="392.6,106.9 379.8,120 365.8,134.4 356.2,144.2 338.1,162.8 345.7,170 365,150.2 373.1,141.9    387.8,126.8 392.6,121.9 441.7,168.3 449.3,160.6  " fill="#ffffff"/>
	<path class="st1" d="M387.8,126.8L373,141.9c5.3,6.8,8.3,14.6,8.3,22.9c0,2.8-0.4,5.6-1,8.2c-1.7,7-5.6,13.4-11.1,19   c-5.7,5.7-13.1,10.5-21.7,14.1c-3.7,1.5-7.7,2.8-11.8,3.8c-7,1.7-14.6,2.7-22.4,2.7c-9.7,0-18.9-1.4-27.2-4   c-11.3-3.5-21.1-9.1-28.2-16.1c-2.6-2.5-4.8-5.3-6.7-8.2c-2.3-3.6-4-7.4-4.9-11.3c-0.7-2.7-1-5.4-1-8.2c0-3.7,0.6-7.3,1.7-10.7   l-17-16.9c-6.2,9.1-9.7,19.3-9.7,30.1c0,2.8,0.3,5.5,0.7,8.2c1.1,6.6,3.5,12.8,6.9,18.6c1.7,2.9,3.8,5.8,6,8.5   c6,7.1,13.7,13.3,22.7,18.4c15.7,8.8,35.3,14,56.6,14c14.9,0,29-2.6,41.5-7.1c3.8-1.4,7.4-2.9,10.9-4.7c8.1-4,15.2-8.9,21.2-14.5   c10-9.4,16.7-20.8,18.8-33.2c0.4-2.7,0.7-5.4,0.7-8.2C406.3,152.1,399.4,138.1,387.8,126.8" fill="#ffffff"/>
	<path class="st3" d="M330.3,190l17.1,16.1c8.6-3.5,16.1-8.3,21.7-14L345.7,170l-7.6-7.2l18-18.5l9.6-9.8l14-14.4l12.7-13.1   l56.6,53.6l-7.6,7.8L395.1,216c-4.9,6.6-11.2,12.4-18.7,17.5l19.1,18.1l89.4-91.7l-93.1-88.1l-34.9,35.8l-14,14.3l-12.8,13.2   l-27.6,28.4L330.3,190z" fill="#ffffff"/>
	<path class="st0" d="M251.6,184.8l0.5,0.8c1.4,2.1,3.2,4.1,5,6.1L285,179L221,120.4l-1.7,9.1l50.2,48.9L251.6,184.8z" fill="#ffffff"/>
	<path class="st0" d="M406.3,167.3c0,2.8-0.3,5.5-0.7,8.2c-2.1,12.4-8.8,23.8-18.8,33.2c-6,5.6-13.1,10.5-21.2,14.5   c-3.5,1.7-7.1,3.3-10.9,4.7c-12.5,4.5-26.6,7.1-41.5,7.1c-21.3,0-40.9-5.2-56.6-14c-9-5.1-16.7-11.3-22.7-18.4   c-2.3-2.7-4.3-5.5-6-8.5c-3.5-5.8-5.9-12.1-6.9-18.6c-0.4-2.7-0.7-5.4-0.7-8.2c0-0.9,0.1-1.7,0.1-2.6l0-0.2   c-0.5,2.7-0.1,16.4-0.1,19.2c0,4.4,0.6,8.7,1.7,12.9c0.9,3.3,2,6.4,3.5,9.5c3.7,7.8,9.3,14.9,16.4,21   c17.1,14.8,42.7,24.3,71.3,24.3c19.9,0,38.3-4.6,53.4-12.3c3.4-1.8,6.7-3.7,9.8-5.7c7.5-5.1,13.8-11,18.7-17.6   c7.1-9.6,11.1-20.5,11.1-32.1c0-2.5,0.2-14.1,0-18.7C406.2,164.4,406.3,166.5,406.3,167.3" fill="#ffffff"/>
	<polygon points="227.9,407.9 204.1,407.9 204.1,469 183.2,469 183.2,407.9 159.4,407.9 159.4,390.3 227.9,390.3  " fill="#ffffff"/>
	<polygon points="230.4,390.3 294.1,390.3 294.1,406.7 251.2,406.7 251.2,420.5 290.4,420.5 290.4,436.4 251.2,436.4 251.2,451.4    295.2,451.4 295.2,469 230.4,469  " fill="#ffffff"/>
	<path d="M353.5,418.4c-1.1-7.9-7.4-12.1-16.1-12.1c-13.4,0-18.6,11.7-18.6,23.4c0,11.7,5.2,23.4,18.6,23.4   c9.7,0,15.3-5.5,16.1-14.6h20.8c-1.1,20.3-16.2,32.2-36.5,32.2c-24.2,0-39.9-18.2-39.9-41c0-22.8,15.7-41,39.9-41   c17.3,0,36,10.8,36.5,29.8H353.5z" fill="#ffffff"/>
	<polygon points="378.4,390.3 399.3,390.3 399.3,418.9 426.7,418.9 426.7,390.3 447.5,390.3 447.5,469 426.7,469 426.7,436.6    399.3,436.6 399.3,469 378.4,469  " fill="#ffffff"/>
	<path d="M54.5,519.2c-1.1-7.9-7.4-12.1-16.1-12.1c-13.4,0-18.6,11.7-18.6,23.4c0,11.7,5.2,23.4,18.6,23.4c9.7,0,15.3-5.5,16.1-14.6   h20.8c-1.1,20.3-16.2,32.2-36.5,32.2c-24.2,0-39.9-18.2-39.9-41c0-22.8,15.7-41,39.9-41c17.2,0,36,10.8,36.5,29.8H54.5z" fill="#ffffff"/>
	<polygon points="79.5,491.1 100.3,491.1 100.3,519.8 127.7,519.8 127.7,491.1 148.6,491.1 148.6,569.9 127.7,569.9 127.7,537.4    100.3,537.4 100.3,569.9 79.5,569.9  " fill="#ffffff"/>
	<path d="M177.7,491.1h21.2l29.9,78.8H207l-4.9-14.1h-27.9l-5,14.1h-21.4L177.7,491.1z M179,540.5h18.2l-8.9-27.6h-0.2L179,540.5z" fill="#ffffff"/>
	<polygon points="228.1,491.1 248.9,491.1 248.9,552.2 286.2,552.2 286.2,569.9 228.1,569.9  " fill="#ffffff"/>
	<polygon points="289.8,491.1 310.6,491.1 310.6,552.2 347.9,552.2 347.9,569.9 289.8,569.9  " fill="#ffffff"/>
	<polygon points="351.5,491.1 415.2,491.1 415.2,507.5 372.3,507.5 372.3,521.3 411.5,521.3 411.5,537.2 372.3,537.2 372.3,552.2    416.4,552.2 416.4,569.9 351.5,569.9  " fill="#ffffff"/>
	<polygon points="421.3,491.1 442.7,491.1 470.5,539.6 470.7,539.6 470.7,491.1 490.3,491.1 490.3,569.9 468.9,569.9 441.1,520.8    440.9,520.8 440.9,569.9 421.3,569.9  " fill="#ffffff"/>
	<path d="M571.6,569.9h-13.4l-1.2-8.6c-5.5,7.6-14.9,10.3-22.3,10.3c-24.2,0-39.9-18.2-39.9-41c0-22.8,15.7-41,39.9-41   c16.6,0,34.3,8.7,36.2,28.5H550c-0.7-6.7-7.4-10.8-15.8-10.8c-13.4,0-18.6,11.7-18.6,23.4c0,11.7,5.1,23.4,18.6,23.4   c10.3,0,17.3-4.8,18.4-11.9H538v-15.2h33.6V569.9z" fill="#ffffff"/>
	<polygon points="578.2,491.1 641.9,491.1 641.9,507.5 599,507.5 599,521.3 638.2,521.3 638.2,537.2 599,537.2 599,552.2    643.1,552.2 643.1,569.9 578.2,569.9  " fill="#ffffff"/>
	<polygon points="157,278.4 221,278.4 215,302.7 184.3,302.7 181.3,315.4 213.3,315.4 207.7,337.9 176.1,337.9 168.6,369.9    135.5,369.9  " fill="#ffffff"/>
	<polygon points="229.7,278.4 262.8,278.4 241.2,369.9 208.2,369.9  " fill="#ffffff"/>
	<path d="M271.4,279l2.1-0.3c10.6-1.2,23.8-2.1,31.1-2.1c12.1,0,21.5,1.4,28.7,4.2c9.1,3.7,14.6,11.8,14.6,21.5   c0,8.4-2.9,16.3-8.3,22.5c-4.7,5.3-8.9,7.9-17.7,10.6l-2.1,0.7c0.9,0.7,1.2,1,1.7,1.4c2.6,2.9,10.3,17.7,16.8,32.3h-36.4   c-4.7-13-6.1-16.4-12.3-31.3l-7.3,31.3H250L271.4,279z M295.8,322c10.6,0,18-6.2,18-14.9c0-4.7-3.5-7-10.3-7c-2,0-3,0.1-5.2,0.5   l-5,21.1C294.5,321.9,294.6,322,295.8,322" fill="#ffffff"/>
	<polygon points="426.3,278.4 506.5,278.4 500.9,304.9 477.1,304.9 461.3,369.9 428.3,369.9 444,304.9 418.2,304.9  " fill="#ffffff"/>
	<path d="M476.8,353.5c4.5,0,8.1,3.5,8.1,7.9c0,4.4-3.6,7.9-8.1,7.9c-4.5,0-8-3.5-8-7.9C468.7,357,472.3,353.5,476.8,353.5    M476.8,368.4c3.9,0,7.1-3.1,7.1-6.9c0-3.9-3.1-7-7.1-7c-3.9,0-7,3.1-7,6.9C469.7,365.3,472.9,368.4,476.8,368.4 M473.7,357.4   c0.4,0,0.5-0.1,1.3-0.1c0.8-0.1,1.2-0.1,1.5-0.1c2.6,0,4,1,4,2.9c0,1.2-0.5,1.9-1.6,2.3l-0.1,0l0.2,0.2c0.3,0.2,1.2,1.6,2,2.9h-3   c-0.6-1.1-0.8-1.4-1.6-2.7v2.7h-2.6V357.4z M476.6,361.2c0.7,0,1.1-0.3,1.1-1c0-0.6-0.4-0.9-1.1-0.9l-0.3,0v1.9L476.6,361.2" fill="#ffffff"/>
	<path d="M341.4,367.5c9.3,2.7,19.5,4.2,28.9,4.2c12.9,0,22.7-2.9,31.2-8.9c9.4-6.6,15.5-16.7,15.5-25.9c0-6.2-2.7-11.8-7.6-15.8   c-3.8-3-7.7-5.3-15.8-9l-6.5-3c-2.1-1.1-3.2-2.2-3.2-3.4c0-3.3,4.2-5.8,10-5.8c4.3,0,9.5,1.2,19.3,4.4l6.8-24.8   c-7.3-2-14.5-2.9-21.6-2.9c-27,0-47.8,14.5-47.8,33.3c0,9.9,6.7,16.9,23.4,24.5c7.9,3.6,9.3,4.5,9.3,7c0,3.7-4.1,6-10.8,6   c-5.9,0-13.5-1.8-23.8-5.5l0,0L341.4,367.5z" fill="#ffffff"/>
</g>
</svg>